<?xml version="1.0" encoding="UTF-8"?>
<svg width="23px" height="23px" viewBox="0 0 23 23" version="1.1" xmlns="http://www.w3.org/2000/svg" xmlns:xlink="http://www.w3.org/1999/xlink">
    <!-- Generator: Sketch 42 (36781) - http://www.bohemiancoding.com/sketch -->
    <title>save</title>
    <desc>Created with Sketch.</desc>
    <defs></defs>
    <g id="Page-1" stroke="none" stroke-width="1" fill="none" fill-rule="evenodd">
        <g id="Full-Color" transform="translate(-451.000000, -351.000000)">
            <g id="save" transform="translate(451.000000, 351.000000)">
                <path d="M21.5,22.5 L1.5,22.5 C0.95,22.5 0.5,22.05 0.5,21.5 L0.5,1.5 C0.5,0.95 0.95,0.5 1.5,0.5 L19.086,0.5 C19.351,0.5 19.605,0.605 19.793,0.793 L22.207,3.207 C22.395,3.395 22.5,3.649 22.5,3.914 L22.5,21.5 C22.5,22.05 22.05,22.5 21.5,22.5" id="Fill-149" fill="#FFCC00"></path>
                <polygon id="Fill-150" fill="#FFFFFF" points="3.5 22.5 19.5 22.5 19.5 12.5 3.5 12.5"></polygon>
                <polygon id="Stroke-151" stroke="#000000" stroke-linecap="round" stroke-linejoin="round" points="3.5 22.5 19.5 22.5 19.5 12.5 3.5 12.5"></polygon>
                <polygon id="Stroke-152" stroke="#000000" stroke-linecap="round" stroke-linejoin="round" points="6.5 9.5 16.5 9.5 16.5 3.5 6.5 3.5"></polygon>
                <path d="M6.5,15.5 L10.5,15.5" id="Stroke-153" stroke="#000000" stroke-linecap="round" stroke-linejoin="round"></path>
                <path d="M6.5,17.5 L14.5,17.5" id="Stroke-154" stroke="#000000" stroke-linecap="round" stroke-linejoin="round"></path>
                <polygon id="Fill-155" fill="#000000" points="13 8 15 8 15 5 13 5"></polygon>
                <path d="M21.5,20 C21.7738576,20 22,19.7738576 22,19.5 L23,19.5 L23,21.5 C23,22.3261424 22.3261424,23 21.5,23 L1.5,23 C0.673857625,23 0,22.3261424 0,21.5 L0,19.5 L1,19.5 C1,19.7738576 1.22614237,20 1.5,20 L21.5,20 Z" id="Stroke-157" fill="#000000" fill-rule="nonzero" opacity="0.239999995"></path>
                <path d="M21.5,22.5 L1.5,22.5 C0.95,22.5 0.5,22.05 0.5,21.5 L0.5,1.5 C0.5,0.95 0.95,0.5 1.5,0.5 L19.086,0.5 C19.351,0.5 19.605,0.605 19.793,0.793 L22.207,3.207 C22.395,3.395 22.5,3.649 22.5,3.914 L22.5,21.5 C22.5,22.05 22.05,22.5 21.5,22.5 Z" id="Stroke-159" stroke="#000000" stroke-linecap="round" stroke-linejoin="round"></path>
            </g>
        </g>
    </g>
</svg>