<svg id="icons" xmlns="http://www.w3.org/2000/svg" viewBox="0 0 48 48"><title>touch-type-select-tool</title><g id="touch-type-select-tool"><rect x="4" y="4" width="40" height="40" fill="none" stroke="#2d346a" stroke-linecap="round" stroke-linejoin="round" stroke-width="2"/><circle cx="4" cy="4" r="2" fill="none" stroke="#2d346a" stroke-linecap="round" stroke-linejoin="round" stroke-width="2"/><circle cx="44" cy="4" r="2" fill="none" stroke="#2d346a" stroke-linecap="round" stroke-linejoin="round" stroke-width="2"/><circle cx="4" cy="44" r="2" fill="none" stroke="#2d346a" stroke-linecap="round" stroke-linejoin="round" stroke-width="2"/><circle cx="44" cy="44" r="2" fill="none" stroke="#2d346a" stroke-linecap="round" stroke-linejoin="round" stroke-width="2"/><polygon points="38 8 10 8 10 16 12 16 15 12 22 12 22 36 16 36 16 40 32 40 32 36 26 36 26 12 33 12 36 16 38 16 38 8" fill="#ffc12e"/><polygon points="38 8 10 8 10 16 12 16 15 12 22 12 22 36 16 36 16 40 32 40 32 36 26 36 26 12 33 12 36 16 38 16 38 8" fill="none" stroke="#2d346a" stroke-linecap="round" stroke-linejoin="round" stroke-width="2"/></g></svg>